<svg t="1731765361924" class="icon" viewBox="0 0 1024 1024" version="1.1" xmlns="http://www.w3.org/2000/svg" p-id="9549" width="200" height="200"><path d="M511.950452 767.289806c-141.130323 0-255.917419-114.787097-255.91742-255.933935 0-141.163355 114.787097-256 255.91742-256 141.163355 0 256 114.836645 256 256 0.016516 141.130323-114.836645 255.933935-256 255.933935m0-460.733935c-112.887742 0-204.733935 91.879226-204.733936 204.8 0 112.904258 91.846194 204.733935 204.733936 204.733935 112.920774 0 204.816516-91.829677 204.816516-204.733935 0-112.920774-91.895742-204.8-204.816516-204.8M537.583484 109.171613c0 11.264-9.216 20.48-20.48 20.48h-10.223484c-11.264 0-20.48-9.232516-20.48-20.48V22.131613c0-11.264 9.216-20.48 20.48-20.48h10.223484c11.280516 0 20.48 9.216 20.48 20.48v87.04zM175.929806 288.404645c9.744516 5.648516 13.130323 18.233806 7.498323 27.978323l-5.12 8.852645a20.529548 20.529548 0 0 1-27.978323 7.498322L74.983226 289.246968a20.546065 20.546065 0 0 1-7.498323-27.978323l5.12-8.869161a20.546065 20.546065 0 0 1 27.961807-7.498323l75.363096 43.503484zM150.329806 691.249548a20.562581 20.562581 0 0 1 27.978323 7.498323l5.12 8.869161c5.632 9.744516 2.246194 22.346323-7.498323 27.994839L100.583226 779.082323a20.513032 20.513032 0 0 1-27.961807-7.498323l-5.12-8.869161a20.529548 20.529548 0 0 1 7.498323-27.978323l75.330064-43.486968zM486.4 914.828387c0-11.280516 9.216-20.48 20.48-20.48h10.223484c11.280516 0 20.48 9.199484 20.48 20.48v87.04c0 11.264-9.216 20.48-20.48 20.48h-10.223484c-11.264 0-20.48-9.216-20.48-20.48v-87.04zM848.053677 735.595355a20.579097 20.579097 0 0 1-7.498322-27.994839l5.12-8.869161a20.546065 20.546065 0 0 1 27.961806-7.498323l75.363097 43.503484c9.761032 5.632 13.113806 18.233806 7.498323 27.978323l-5.136516 8.869161a20.529548 20.529548 0 0 1-27.961807 7.498323l-75.346581-43.486968zM873.637161 332.750452a20.529548 20.529548 0 0 1-27.961806-7.498323l-5.12-8.852645a20.529548 20.529548 0 0 1 7.498322-27.978323l75.363097-43.52a20.546065 20.546065 0 0 1 27.961807 7.498323l5.136516 8.869161a20.529548 20.529548 0 0 1-7.498323 27.978323l-75.379613 43.503484z" fill="#f8f2f2" p-id="9550"></path></svg>