<svg t="1731504315778" class="icon" viewBox="0 0 1024 1024" version="1.1" xmlns="http://www.w3.org/2000/svg" p-id="8193" width="200" height="200"><path d="M416 0h32v32h-32zM448 0h32v32h-32zM480 0h32v32h-32zM512 0h32v32h-32zM544 0h32v32h-32zM576 0h32v32h-32zM320 32h32v32h-32zM352 32h32v32h-32zM384 32h32v32h-32z" p-id="8194"></path><path d="M416 32h32v32h-32zM448 32h32v32h-32zM480 32h32v32h-32zM512 32h32v32h-32zM544 32h32v32h-32zM576 32h32v32h-32z" fill="#FFFFFF" p-id="8195"></path><path d="M608 32h32v32h-32zM640 32h32v32h-32zM672 32h32v32h-32zM256 64h32v32H256zM288 64h32v32H288z" p-id="8196"></path><path d="M320 64h32v32h-32zM352 64h32v32h-32zM384 64h32v32h-32z" fill="#FFFFFF" p-id="8197"></path><path d="M416 64h32v32h-32zM448 64h32v32h-32z" fill="#FBF236" p-id="8198"></path><path d="M480 64h32v32h-32zM512 64h32v32h-32z" fill="#FFFFFF" p-id="8199"></path><path d="M544 64h32v32h-32zM576 64h32v32h-32z" fill="#FBF236" p-id="8200"></path><path d="M608 64h32v32h-32zM640 64h32v32h-32zM672 64h32v32h-32z" fill="#FFFFFF" p-id="8201"></path><path d="M704 64h32v32h-32zM736 64h32v32h-32zM224 96h32v32H224z" p-id="8202"></path><path d="M256 96h32v32H256zM288 96h32v32H288z" fill="#FFFFFF" p-id="8203"></path><path d="M320 96h32v32h-32zM352 96h32v32h-32zM384 96h32v32h-32zM416 96h32v32h-32zM448 96h32v32h-32z" fill="#FBF236" p-id="8204"></path><path d="M480 96h32v32h-32zM512 96h32v32h-32z" fill="#FFFFFF" p-id="8205"></path><path d="M544 96h32v32h-32zM576 96h32v32h-32zM608 96h32v32h-32zM640 96h32v32h-32zM672 96h32v32h-32z" fill="#FBF236" p-id="8206"></path><path d="M704 96h32v32h-32zM736 96h32v32h-32z" fill="#FFFFFF" p-id="8207"></path><path d="M768 96h32v32h-32zM160 128h32v32H160zM192 128h32v32H192z" p-id="8208"></path><path d="M224 128h32v32H224z" fill="#FFFFFF" p-id="8209"></path><path d="M256 128h32v32H256zM288 128h32v32H288zM320 128h32v32h-32zM352 128h32v32h-32zM384 128h32v32h-32zM416 128h32v32h-32zM448 128h32v32h-32z" fill="#FBF236" p-id="8210"></path><path d="M480 128h32v32h-32zM512 128h32v32h-32z" fill="#FFFFFF" p-id="8211"></path><path d="M544 128h32v32h-32zM576 128h32v32h-32zM608 128h32v32h-32zM640 128h32v32h-32zM672 128h32v32h-32zM704 128h32v32h-32zM736 128h32v32h-32z" fill="#FBF236" p-id="8212"></path><path d="M768 128h32v32h-32z" fill="#FFFFFF" p-id="8213"></path><path d="M800 128h32v32h-32zM832 128h32v32h-32zM128 160h32v32H128z" p-id="8214"></path><path d="M160 160h32v32H160zM192 160h32v32H192z" fill="#FFFFFF" p-id="8215"></path><path d="M224 160h32v32H224zM256 160h32v32H256zM288 160h32v32H288zM320 160h32v32h-32zM352 160h32v32h-32zM384 160h32v32h-32zM416 160h32v32h-32zM448 160h32v32h-32z" fill="#FBF236" p-id="8216"></path><path d="M480 160h32v32h-32zM512 160h32v32h-32z" fill="#FFFFFF" p-id="8217"></path><path d="M544 160h32v32h-32zM576 160h32v32h-32zM608 160h32v32h-32zM640 160h32v32h-32zM672 160h32v32h-32zM704 160h32v32h-32zM736 160h32v32h-32zM768 160h32v32h-32z" fill="#FBF236" p-id="8218"></path><path d="M800 160h32v32h-32zM832 160h32v32h-32z" fill="#FFFFFF" p-id="8219"></path><path d="M864 160h32v32h-32zM128 192h32v32H128z" p-id="8220"></path><path d="M160 192h32v32H160z" fill="#FFFFFF" p-id="8221"></path><path d="M192 192h32v32H192z" fill="#FBF236" p-id="8222"></path><path d="M224 192h32v32H224z" fill="#FFFFFF" p-id="8223"></path><path d="M256 192h32v32H256zM288 192h32v32H288zM320 192h32v32h-32zM352 192h32v32h-32zM384 192h32v32h-32zM416 192h32v32h-32zM448 192h32v32h-32z" fill="#FBF236" p-id="8224"></path><path d="M480 192h32v32h-32zM512 192h32v32h-32z" fill="#FFFFFF" p-id="8225"></path><path d="M544 192h32v32h-32zM576 192h32v32h-32zM608 192h32v32h-32zM640 192h32v32h-32zM672 192h32v32h-32zM704 192h32v32h-32zM736 192h32v32h-32z" fill="#FBF236" p-id="8226"></path><path d="M768 192h32v32h-32z" fill="#FFFFFF" p-id="8227"></path><path d="M800 192h32v32h-32z" fill="#FBF236" p-id="8228"></path><path d="M832 192h32v32h-32z" fill="#FFFFFF" p-id="8229"></path><path d="M864 192h32v32h-32zM96 224h32v32H96z" p-id="8230"></path><path d="M128 224h32v32H128z" fill="#FFFFFF" p-id="8231"></path><path d="M160 224h32v32H160zM192 224h32v32H192z" fill="#FBF236" p-id="8232"></path><path d="M224 224h32v32H224zM256 224h32v32H256z" fill="#FFFFFF" p-id="8233"></path><path d="M288 224h32v32H288zM320 224h32v32h-32zM352 224h32v32h-32zM384 224h32v32h-32zM416 224h32v32h-32zM448 224h32v32h-32z" fill="#FBF236" p-id="8234"></path><path d="M480 224h32v32h-32zM512 224h32v32h-32z" fill="#FFFFFF" p-id="8235"></path><path d="M544 224h32v32h-32zM576 224h32v32h-32zM608 224h32v32h-32zM640 224h32v32h-32zM672 224h32v32h-32zM704 224h32v32h-32z" fill="#FBF236" p-id="8236"></path><path d="M736 224h32v32h-32zM768 224h32v32h-32z" fill="#FFFFFF" p-id="8237"></path><path d="M800 224h32v32h-32zM832 224h32v32h-32z" fill="#FBF236" p-id="8238"></path><path d="M864 224h32v32h-32z" fill="#FFFFFF" p-id="8239"></path><path d="M896 224h32v32h-32zM64 256h32v32H64z" p-id="8240"></path><path d="M96 256h32v32H96z" fill="#FFFFFF" p-id="8241"></path><path d="M128 256h32v32H128zM160 256h32v32H160zM192 256h32v32H192zM224 256h32v32H224zM256 256h32v32H256z" fill="#FBF236" p-id="8242"></path><path d="M288 256h32v32H288z" fill="#FFFFFF" p-id="8243"></path><path d="M320 256h32v32h-32zM352 256h32v32h-32zM384 256h32v32h-32zM416 256h32v32h-32zM448 256h32v32h-32z" fill="#FBF236" p-id="8244"></path><path d="M480 256h32v32h-32zM512 256h32v32h-32z" fill="#FFFFFF" p-id="8245"></path><path d="M544 256h32v32h-32zM576 256h32v32h-32zM608 256h32v32h-32zM640 256h32v32h-32zM672 256h32v32h-32z" fill="#FBF236" p-id="8246"></path><path d="M704 256h32v32h-32z" fill="#FFFFFF" p-id="8247"></path><path d="M736 256h32v32h-32zM768 256h32v32h-32zM800 256h32v32h-32zM832 256h32v32h-32zM864 256h32v32h-32z" fill="#FBF236" p-id="8248"></path><path d="M896 256h32v32h-32z" fill="#FFFFFF" p-id="8249"></path><path d="M928 256h32v32h-32zM64 288h32v32H64z" p-id="8250"></path><path d="M96 288h32v32H96z" fill="#FFFFFF" p-id="8251"></path><path d="M128 288h32v32H128zM160 288h32v32H160zM192 288h32v32H192zM224 288h32v32H224zM256 288h32v32H256zM288 288h32v32H288z" fill="#FBF236" p-id="8252"></path><path d="M320 288h32v32h-32z" fill="#FFFFFF" p-id="8253"></path><path d="M352 288h32v32h-32zM384 288h32v32h-32zM416 288h32v32h-32zM448 288h32v32h-32z" fill="#FBF236" p-id="8254"></path><path d="M480 288h32v32h-32zM512 288h32v32h-32z" fill="#FFFFFF" p-id="8255"></path><path d="M544 288h32v32h-32zM576 288h32v32h-32zM608 288h32v32h-32zM640 288h32v32h-32z" fill="#FBF236" p-id="8256"></path><path d="M672 288h32v32h-32z" fill="#FFFFFF" p-id="8257"></path><path d="M704 288h32v32h-32zM736 288h32v32h-32zM768 288h32v32h-32zM800 288h32v32h-32zM832 288h32v32h-32zM864 288h32v32h-32z" fill="#FBF236" p-id="8258"></path><path d="M896 288h32v32h-32z" fill="#FFFFFF" p-id="8259"></path><path d="M928 288h32v32h-32zM32 320h32v32H32z" p-id="8260"></path><path d="M64 320h32v32H64z" fill="#FFFFFF" p-id="8261"></path><path d="M96 320h32v32H96zM128 320h32v32H128zM160 320h32v32H160zM192 320h32v32H192zM224 320h32v32H224zM256 320h32v32H256zM288 320h32v32H288z" fill="#FBF236" p-id="8262"></path><path d="M320 320h32v32h-32z" fill="#FFFFFF" p-id="8263"></path><path d="M352 320h32v32h-32zM384 320h32v32h-32zM416 320h32v32h-32zM448 320h32v32h-32z" fill="#FBF236" p-id="8264"></path><path d="M480 320h32v32h-32zM512 320h32v32h-32z" fill="#FFFFFF" p-id="8265"></path><path d="M544 320h32v32h-32zM576 320h32v32h-32zM608 320h32v32h-32zM640 320h32v32h-32z" fill="#FBF236" p-id="8266"></path><path d="M672 320h32v32h-32z" fill="#FFFFFF" p-id="8267"></path><path d="M704 320h32v32h-32zM736 320h32v32h-32zM768 320h32v32h-32zM800 320h32v32h-32zM832 320h32v32h-32zM864 320h32v32h-32zM896 320h32v32h-32z" fill="#FBF236" p-id="8268"></path><path d="M928 320h32v32h-32z" fill="#FFFFFF" p-id="8269"></path><path d="M960 320h32v32h-32zM32 352h32v32H32z" p-id="8270"></path><path d="M64 352h32v32H64z" fill="#FFFFFF" p-id="8271"></path><path d="M96 352h32v32H96zM128 352h32v32H128zM160 352h32v32H160zM192 352h32v32H192zM224 352h32v32H224zM256 352h32v32H256zM288 352h32v32H288zM320 352h32v32h-32z" fill="#FBF236" p-id="8272"></path><path d="M352 352h32v32h-32z" fill="#FFFFFF" p-id="8273"></path><path d="M384 352h32v32h-32zM416 352h32v32h-32zM448 352h32v32h-32z" fill="#FBF236" p-id="8274"></path><path d="M480 352h32v32h-32zM512 352h32v32h-32z" fill="#FFFFFF" p-id="8275"></path><path d="M544 352h32v32h-32zM576 352h32v32h-32zM608 352h32v32h-32z" fill="#FBF236" p-id="8276"></path><path d="M640 352h32v32h-32z" fill="#FFFFFF" p-id="8277"></path><path d="M672 352h32v32h-32zM704 352h32v32h-32zM736 352h32v32h-32zM768 352h32v32h-32zM800 352h32v32h-32zM832 352h32v32h-32zM864 352h32v32h-32zM896 352h32v32h-32z" fill="#FBF236" p-id="8278"></path><path d="M928 352h32v32h-32z" fill="#FFFFFF" p-id="8279"></path><path d="M960 352h32v32h-32zM32 384h32v32H32z" p-id="8280"></path><path d="M64 384h32v32H64z" fill="#FFFFFF" p-id="8281"></path><path d="M96 384h32v32H96zM128 384h32v32H128zM160 384h32v32H160zM192 384h32v32H192zM224 384h32v32H224zM256 384h32v32H256zM288 384h32v32H288zM320 384h32v32h-32zM352 384h32v32h-32z" fill="#FBF236" p-id="8282"></path><path d="M384 384h32v32h-32zM416 384h32v32h-32z" fill="#FFFFFF" p-id="8283"></path><path d="M448 384h32v32h-32z" fill="#FBF236" p-id="8284"></path><path d="M480 384h32v32h-32zM512 384h32v32h-32z" fill="#FFFFFF" p-id="8285"></path><path d="M544 384h32v32h-32z" fill="#FBF236" p-id="8286"></path><path d="M576 384h32v32h-32zM608 384h32v32h-32z" fill="#FFFFFF" p-id="8287"></path><path d="M640 384h32v32h-32zM672 384h32v32h-32zM704 384h32v32h-32zM736 384h32v32h-32zM768 384h32v32h-32zM800 384h32v32h-32zM832 384h32v32h-32zM864 384h32v32h-32zM896 384h32v32h-32z" fill="#FBF236" p-id="8288"></path><path d="M928 384h32v32h-32z" fill="#FFFFFF" p-id="8289"></path><path d="M960 384h32v32h-32zM0 416h32v32H0z" p-id="8290"></path><path d="M32 416h32v32H32z" fill="#FFFFFF" p-id="8291"></path><path d="M64 416h32v32H64zM96 416h32v32H96zM128 416h32v32H128zM160 416h32v32H160zM192 416h32v32H192zM224 416h32v32H224zM256 416h32v32H256zM288 416h32v32H288zM320 416h32v32h-32zM352 416h32v32h-32zM384 416h32v32h-32z" fill="#FBF236" p-id="8292"></path><path d="M416 416h32v32h-32z" fill="#FFFFFF" p-id="8293"></path><path d="M448 416h32v32h-32z" fill="#FBF236" p-id="8294"></path><path d="M480 416h32v32h-32zM512 416h32v32h-32z" fill="#FFFFFF" p-id="8295"></path><path d="M544 416h32v32h-32z" fill="#FBF236" p-id="8296"></path><path d="M576 416h32v32h-32z" fill="#FFFFFF" p-id="8297"></path><path d="M608 416h32v32h-32zM640 416h32v32h-32zM672 416h32v32h-32zM704 416h32v32h-32zM736 416h32v32h-32zM768 416h32v32h-32zM800 416h32v32h-32zM832 416h32v32h-32zM864 416h32v32h-32zM896 416h32v32h-32zM928 416h32v32h-32z" fill="#FBF236" p-id="8298"></path><path d="M960 416h32v32h-32z" fill="#FFFFFF" p-id="8299"></path><path d="M992 416h32v32h-32zM0 448h32v32H0z" p-id="8300"></path><path d="M32 448h32v32H32z" fill="#FFFFFF" p-id="8301"></path><path d="M64 448h32v32H64zM96 448h32v32H96zM128 448h32v32H128zM160 448h32v32H160zM192 448h32v32H192zM224 448h32v32H224zM256 448h32v32H256zM288 448h32v32H288zM320 448h32v32h-32zM352 448h32v32h-32zM384 448h32v32h-32zM416 448h32v32h-32z" fill="#FBF236" p-id="8302"></path><path d="M448 448h32v32h-32zM480 448h32v32h-32zM512 448h32v32h-32zM544 448h32v32h-32z" fill="#FFFFFF" p-id="8303"></path><path d="M576 448h32v32h-32zM608 448h32v32h-32zM640 448h32v32h-32zM672 448h32v32h-32zM704 448h32v32h-32zM736 448h32v32h-32zM768 448h32v32h-32zM800 448h32v32h-32zM832 448h32v32h-32zM864 448h32v32h-32zM896 448h32v32h-32zM928 448h32v32h-32z" fill="#FBF236" p-id="8304"></path><path d="M960 448h32v32h-32z" fill="#FFFFFF" p-id="8305"></path><path d="M992 448h32v32h-32zM0 480h32v32H0z" p-id="8306"></path><path d="M32 480h32v32H32zM64 480h32v32H64zM96 480h32v32H96zM128 480h32v32H128zM160 480h32v32H160zM192 480h32v32H192zM224 480h32v32H224zM256 480h32v32H256zM288 480h32v32H288zM320 480h32v32h-32zM352 480h32v32h-32zM384 480h32v32h-32zM416 480h32v32h-32zM448 480h32v32h-32zM480 480h32v32h-32zM512 480h32v32h-32zM544 480h32v32h-32zM576 480h32v32h-32zM608 480h32v32h-32zM640 480h32v32h-32zM672 480h32v32h-32zM704 480h32v32h-32zM736 480h32v32h-32zM768 480h32v32h-32zM800 480h32v32h-32zM832 480h32v32h-32zM864 480h32v32h-32zM896 480h32v32h-32zM928 480h32v32h-32zM960 480h32v32h-32z" fill="#FFFFFF" p-id="8307"></path><path d="M992 480h32v32h-32zM0 512h32v32H0z" p-id="8308"></path><path d="M32 512h32v32H32zM64 512h32v32H64zM96 512h32v32H96zM128 512h32v32H128zM160 512h32v32H160zM192 512h32v32H192zM224 512h32v32H224zM256 512h32v32H256zM288 512h32v32H288zM320 512h32v32h-32zM352 512h32v32h-32zM384 512h32v32h-32zM416 512h32v32h-32zM448 512h32v32h-32zM480 512h32v32h-32zM512 512h32v32h-32zM544 512h32v32h-32zM576 512h32v32h-32zM608 512h32v32h-32zM640 512h32v32h-32zM672 512h32v32h-32zM704 512h32v32h-32zM736 512h32v32h-32zM768 512h32v32h-32zM800 512h32v32h-32zM832 512h32v32h-32zM864 512h32v32h-32zM896 512h32v32h-32zM928 512h32v32h-32zM960 512h32v32h-32z" fill="#FFFFFF" p-id="8309"></path><path d="M992 512h32v32h-32zM0 544h32v32H0z" p-id="8310"></path><path d="M32 544h32v32H32z" fill="#FFFFFF" p-id="8311"></path><path d="M64 544h32v32H64zM96 544h32v32H96zM128 544h32v32H128zM160 544h32v32H160zM192 544h32v32H192zM224 544h32v32H224zM256 544h32v32H256zM288 544h32v32H288zM320 544h32v32h-32zM352 544h32v32h-32zM384 544h32v32h-32zM416 544h32v32h-32z" fill="#FBF236" p-id="8312"></path><path d="M448 544h32v32h-32zM480 544h32v32h-32zM512 544h32v32h-32zM544 544h32v32h-32z" fill="#FFFFFF" p-id="8313"></path><path d="M576 544h32v32h-32zM608 544h32v32h-32zM640 544h32v32h-32zM672 544h32v32h-32zM704 544h32v32h-32zM736 544h32v32h-32zM768 544h32v32h-32zM800 544h32v32h-32zM832 544h32v32h-32zM864 544h32v32h-32zM896 544h32v32h-32zM928 544h32v32h-32z" fill="#FBF236" p-id="8314"></path><path d="M960 544h32v32h-32z" fill="#FFFFFF" p-id="8315"></path><path d="M992 544h32v32h-32zM0 576h32v32H0z" p-id="8316"></path><path d="M32 576h32v32H32z" fill="#FFFFFF" p-id="8317"></path><path d="M64 576h32v32H64zM96 576h32v32H96zM128 576h32v32H128zM160 576h32v32H160zM192 576h32v32H192zM224 576h32v32H224zM256 576h32v32H256zM288 576h32v32H288zM320 576h32v32h-32zM352 576h32v32h-32zM384 576h32v32h-32z" fill="#FBF236" p-id="8318"></path><path d="M416 576h32v32h-32z" fill="#FFFFFF" p-id="8319"></path><path d="M448 576h32v32h-32z" fill="#FBF236" p-id="8320"></path><path d="M480 576h32v32h-32zM512 576h32v32h-32z" fill="#FFFFFF" p-id="8321"></path><path d="M544 576h32v32h-32z" fill="#FBF236" p-id="8322"></path><path d="M576 576h32v32h-32z" fill="#FFFFFF" p-id="8323"></path><path d="M608 576h32v32h-32zM640 576h32v32h-32zM672 576h32v32h-32zM704 576h32v32h-32zM736 576h32v32h-32zM768 576h32v32h-32zM800 576h32v32h-32zM832 576h32v32h-32zM864 576h32v32h-32zM896 576h32v32h-32zM928 576h32v32h-32z" fill="#FBF236" p-id="8324"></path><path d="M960 576h32v32h-32z" fill="#FFFFFF" p-id="8325"></path><path d="M992 576h32v32h-32zM32 608h32v32H32z" p-id="8326"></path><path d="M64 608h32v32H64z" fill="#FFFFFF" p-id="8327"></path><path d="M96 608h32v32H96zM128 608h32v32H128zM160 608h32v32H160zM192 608h32v32H192zM224 608h32v32H224zM256 608h32v32H256zM288 608h32v32H288zM320 608h32v32h-32zM352 608h32v32h-32z" fill="#FBF236" p-id="8328"></path><path d="M384 608h32v32h-32zM416 608h32v32h-32z" fill="#FFFFFF" p-id="8329"></path><path d="M448 608h32v32h-32z" fill="#FBF236" p-id="8330"></path><path d="M480 608h32v32h-32zM512 608h32v32h-32z" fill="#FFFFFF" p-id="8331"></path><path d="M544 608h32v32h-32z" fill="#FBF236" p-id="8332"></path><path d="M576 608h32v32h-32zM608 608h32v32h-32z" fill="#FFFFFF" p-id="8333"></path><path d="M640 608h32v32h-32zM672 608h32v32h-32zM704 608h32v32h-32zM736 608h32v32h-32zM768 608h32v32h-32zM800 608h32v32h-32zM832 608h32v32h-32zM864 608h32v32h-32zM896 608h32v32h-32z" fill="#FBF236" p-id="8334"></path><path d="M928 608h32v32h-32z" fill="#FFFFFF" p-id="8335"></path><path d="M960 608h32v32h-32zM32 640h32v32H32z" p-id="8336"></path><path d="M64 640h32v32H64z" fill="#FFFFFF" p-id="8337"></path><path d="M96 640h32v32H96zM128 640h32v32H128zM160 640h32v32H160zM192 640h32v32H192zM224 640h32v32H224zM256 640h32v32H256zM288 640h32v32H288zM320 640h32v32h-32z" fill="#FBF236" p-id="8338"></path><path d="M352 640h32v32h-32z" fill="#FFFFFF" p-id="8339"></path><path d="M384 640h32v32h-32zM416 640h32v32h-32zM448 640h32v32h-32z" fill="#FBF236" p-id="8340"></path><path d="M480 640h32v32h-32zM512 640h32v32h-32z" fill="#FFFFFF" p-id="8341"></path><path d="M544 640h32v32h-32zM576 640h32v32h-32zM608 640h32v32h-32z" fill="#FBF236" p-id="8342"></path><path d="M640 640h32v32h-32z" fill="#FFFFFF" p-id="8343"></path><path d="M672 640h32v32h-32zM704 640h32v32h-32zM736 640h32v32h-32zM768 640h32v32h-32zM800 640h32v32h-32zM832 640h32v32h-32zM864 640h32v32h-32zM896 640h32v32h-32z" fill="#FBF236" p-id="8344"></path><path d="M928 640h32v32h-32z" fill="#FFFFFF" p-id="8345"></path><path d="M960 640h32v32h-32zM32 672h32v32H32z" p-id="8346"></path><path d="M64 672h32v32H64z" fill="#FFFFFF" p-id="8347"></path><path d="M96 672h32v32H96zM128 672h32v32H128zM160 672h32v32H160zM192 672h32v32H192zM224 672h32v32H224zM256 672h32v32H256zM288 672h32v32H288z" fill="#FBF236" p-id="8348"></path><path d="M320 672h32v32h-32z" fill="#FFFFFF" p-id="8349"></path><path d="M352 672h32v32h-32zM384 672h32v32h-32zM416 672h32v32h-32zM448 672h32v32h-32z" fill="#FBF236" p-id="8350"></path><path d="M480 672h32v32h-32zM512 672h32v32h-32z" fill="#FFFFFF" p-id="8351"></path><path d="M544 672h32v32h-32zM576 672h32v32h-32zM608 672h32v32h-32zM640 672h32v32h-32z" fill="#FBF236" p-id="8352"></path><path d="M672 672h32v32h-32z" fill="#FFFFFF" p-id="8353"></path><path d="M704 672h32v32h-32zM736 672h32v32h-32zM768 672h32v32h-32zM800 672h32v32h-32zM832 672h32v32h-32zM864 672h32v32h-32zM896 672h32v32h-32z" fill="#FBF236" p-id="8354"></path><path d="M928 672h32v32h-32z" fill="#FFFFFF" p-id="8355"></path><path d="M960 672h32v32h-32zM64 704h32v32H64z" p-id="8356"></path><path d="M96 704h32v32H96z" fill="#FFFFFF" p-id="8357"></path><path d="M128 704h32v32H128zM160 704h32v32H160zM192 704h32v32H192zM224 704h32v32H224zM256 704h32v32H256zM288 704h32v32H288z" fill="#FBF236" p-id="8358"></path><path d="M320 704h32v32h-32z" fill="#FFFFFF" p-id="8359"></path><path d="M352 704h32v32h-32zM384 704h32v32h-32zM416 704h32v32h-32zM448 704h32v32h-32z" fill="#FBF236" p-id="8360"></path><path d="M480 704h32v32h-32zM512 704h32v32h-32z" fill="#FFFFFF" p-id="8361"></path><path d="M544 704h32v32h-32zM576 704h32v32h-32zM608 704h32v32h-32zM640 704h32v32h-32z" fill="#FBF236" p-id="8362"></path><path d="M672 704h32v32h-32z" fill="#FFFFFF" p-id="8363"></path><path d="M704 704h32v32h-32zM736 704h32v32h-32zM768 704h32v32h-32zM800 704h32v32h-32zM832 704h32v32h-32zM864 704h32v32h-32z" fill="#FBF236" p-id="8364"></path><path d="M896 704h32v32h-32z" fill="#FFFFFF" p-id="8365"></path><path d="M928 704h32v32h-32zM64 736h32v32H64z" p-id="8366"></path><path d="M96 736h32v32H96z" fill="#FFFFFF" p-id="8367"></path><path d="M128 736h32v32H128zM160 736h32v32H160zM192 736h32v32H192zM224 736h32v32H224zM256 736h32v32H256z" fill="#FBF236" p-id="8368"></path><path d="M288 736h32v32H288z" fill="#FFFFFF" p-id="8369"></path><path d="M320 736h32v32h-32zM352 736h32v32h-32zM384 736h32v32h-32zM416 736h32v32h-32zM448 736h32v32h-32z" fill="#FBF236" p-id="8370"></path><path d="M480 736h32v32h-32zM512 736h32v32h-32z" fill="#FFFFFF" p-id="8371"></path><path d="M544 736h32v32h-32zM576 736h32v32h-32zM608 736h32v32h-32zM640 736h32v32h-32zM672 736h32v32h-32z" fill="#FBF236" p-id="8372"></path><path d="M704 736h32v32h-32z" fill="#FFFFFF" p-id="8373"></path><path d="M736 736h32v32h-32zM768 736h32v32h-32zM800 736h32v32h-32zM832 736h32v32h-32zM864 736h32v32h-32z" fill="#FBF236" p-id="8374"></path><path d="M896 736h32v32h-32z" fill="#FFFFFF" p-id="8375"></path><path d="M928 736h32v32h-32zM96 768h32v32H96z" p-id="8376"></path><path d="M128 768h32v32H128z" fill="#FFFFFF" p-id="8377"></path><path d="M160 768h32v32H160zM192 768h32v32H192z" fill="#FBF236" p-id="8378"></path><path d="M224 768h32v32H224zM256 768h32v32H256z" fill="#FFFFFF" p-id="8379"></path><path d="M288 768h32v32H288zM320 768h32v32h-32zM352 768h32v32h-32zM384 768h32v32h-32zM416 768h32v32h-32zM448 768h32v32h-32z" fill="#FBF236" p-id="8380"></path><path d="M480 768h32v32h-32zM512 768h32v32h-32z" fill="#FFFFFF" p-id="8381"></path><path d="M544 768h32v32h-32zM576 768h32v32h-32zM608 768h32v32h-32zM640 768h32v32h-32zM672 768h32v32h-32zM704 768h32v32h-32z" fill="#FBF236" p-id="8382"></path><path d="M736 768h32v32h-32zM768 768h32v32h-32z" fill="#FFFFFF" p-id="8383"></path><path d="M800 768h32v32h-32zM832 768h32v32h-32z" fill="#FBF236" p-id="8384"></path><path d="M864 768h32v32h-32z" fill="#FFFFFF" p-id="8385"></path><path d="M896 768h32v32h-32zM128 800h32v32H128z" p-id="8386"></path><path d="M160 800h32v32H160z" fill="#FFFFFF" p-id="8387"></path><path d="M192 800h32v32H192z" fill="#FBF236" p-id="8388"></path><path d="M224 800h32v32H224z" fill="#FFFFFF" p-id="8389"></path><path d="M256 800h32v32H256zM288 800h32v32H288zM320 800h32v32h-32zM352 800h32v32h-32zM384 800h32v32h-32zM416 800h32v32h-32zM448 800h32v32h-32z" fill="#FBF236" p-id="8390"></path><path d="M480 800h32v32h-32zM512 800h32v32h-32z" fill="#FFFFFF" p-id="8391"></path><path d="M544 800h32v32h-32zM576 800h32v32h-32zM608 800h32v32h-32zM640 800h32v32h-32zM672 800h32v32h-32zM704 800h32v32h-32zM736 800h32v32h-32z" fill="#FBF236" p-id="8392"></path><path d="M768 800h32v32h-32z" fill="#FFFFFF" p-id="8393"></path><path d="M800 800h32v32h-32z" fill="#FBF236" p-id="8394"></path><path d="M832 800h32v32h-32z" fill="#FFFFFF" p-id="8395"></path><path d="M864 800h32v32h-32zM128 832h32v32H128z" p-id="8396"></path><path d="M160 832h32v32H160zM192 832h32v32H192z" fill="#FFFFFF" p-id="8397"></path><path d="M224 832h32v32H224zM256 832h32v32H256zM288 832h32v32H288zM320 832h32v32h-32zM352 832h32v32h-32zM384 832h32v32h-32zM416 832h32v32h-32zM448 832h32v32h-32z" fill="#FBF236" p-id="8398"></path><path d="M480 832h32v32h-32zM512 832h32v32h-32z" fill="#FFFFFF" p-id="8399"></path><path d="M544 832h32v32h-32zM576 832h32v32h-32zM608 832h32v32h-32zM640 832h32v32h-32zM672 832h32v32h-32zM704 832h32v32h-32zM736 832h32v32h-32zM768 832h32v32h-32z" fill="#FBF236" p-id="8400"></path><path d="M800 832h32v32h-32zM832 832h32v32h-32z" fill="#FFFFFF" p-id="8401"></path><path d="M864 832h32v32h-32zM160 864h32v32H160zM192 864h32v32H192z" p-id="8402"></path><path d="M224 864h32v32H224z" fill="#FFFFFF" p-id="8403"></path><path d="M256 864h32v32H256zM288 864h32v32H288zM320 864h32v32h-32zM352 864h32v32h-32zM384 864h32v32h-32zM416 864h32v32h-32zM448 864h32v32h-32z" fill="#FBF236" p-id="8404"></path><path d="M480 864h32v32h-32zM512 864h32v32h-32z" fill="#FFFFFF" p-id="8405"></path><path d="M544 864h32v32h-32zM576 864h32v32h-32zM608 864h32v32h-32zM640 864h32v32h-32zM672 864h32v32h-32zM704 864h32v32h-32zM736 864h32v32h-32z" fill="#FBF236" p-id="8406"></path><path d="M768 864h32v32h-32z" fill="#FFFFFF" p-id="8407"></path><path d="M800 864h32v32h-32zM832 864h32v32h-32zM224 896h32v32H224z" p-id="8408"></path><path d="M256 896h32v32H256zM288 896h32v32H288z" fill="#FFFFFF" p-id="8409"></path><path d="M320 896h32v32h-32zM352 896h32v32h-32zM384 896h32v32h-32zM416 896h32v32h-32zM448 896h32v32h-32z" fill="#FBF236" p-id="8410"></path><path d="M480 896h32v32h-32zM512 896h32v32h-32z" fill="#FFFFFF" p-id="8411"></path><path d="M544 896h32v32h-32zM576 896h32v32h-32zM608 896h32v32h-32zM640 896h32v32h-32zM672 896h32v32h-32z" fill="#FBF236" p-id="8412"></path><path d="M704 896h32v32h-32zM736 896h32v32h-32z" fill="#FFFFFF" p-id="8413"></path><path d="M768 896h32v32h-32zM256 928h32v32H256zM288 928h32v32H288z" p-id="8414"></path><path d="M320 928h32v32h-32zM352 928h32v32h-32zM384 928h32v32h-32z" fill="#FFFFFF" p-id="8415"></path><path d="M416 928h32v32h-32zM448 928h32v32h-32z" fill="#FBF236" p-id="8416"></path><path d="M480 928h32v32h-32zM512 928h32v32h-32z" fill="#FFFFFF" p-id="8417"></path><path d="M544 928h32v32h-32zM576 928h32v32h-32z" fill="#FBF236" p-id="8418"></path><path d="M608 928h32v32h-32zM640 928h32v32h-32zM672 928h32v32h-32z" fill="#FFFFFF" p-id="8419"></path><path d="M704 928h32v32h-32zM736 928h32v32h-32zM320 960h32v32h-32zM352 960h32v32h-32zM384 960h32v32h-32z" p-id="8420"></path><path d="M416 960h32v32h-32zM448 960h32v32h-32zM480 960h32v32h-32zM512 960h32v32h-32zM544 960h32v32h-32zM576 960h32v32h-32z" fill="#FFFFFF" p-id="8421"></path><path d="M608 960h32v32h-32zM640 960h32v32h-32zM672 960h32v32h-32zM416 992h32v32h-32zM448 992h32v32h-32zM480 992h32v32h-32zM512 992h32v32h-32zM544 992h32v32h-32zM576 992h32v32h-32z" p-id="8422"></path></svg>